<svg width="590" height="69" viewBox="0 0 590 69" fill="none" xmlns="http://www.w3.org/2000/svg">
<path d="M359.733 2.33333C354.267 4.73333 352.667 7.93333 352.667 16.8667C352.667 23.9333 352.533 24.3333 349.333 24.3333C346.933 24.3333 346 25 346 27C346 29 346.933 29.6667 349.333 29.6667H352.667V48.3333C352.667 66.0667 352.8 67 355.333 67C357.867 67 358 66.0667 358 48.3333V29.6667H363.333C367.733 29.6667 368.667 29.2667 368.667 27C368.667 24.7333 367.733 24.3333 363.333 24.3333H358V17.6667C358 10.3333 361.067 5.66666 366 5.66666C367.733 5.66666 368.667 4.73333 368.667 3C368.667 -0.200005 365.867 -0.333336 359.733 2.33333Z" fill="white"/>
<path d="M58 23.2667C58 35.2667 58.6667 47.4 59.4667 50.3333C63.8667 66.0667 83.3333 72.7333 98.8 63.6667C121.467 50.3333 109.467 14.0667 83.0667 16.6C79.0667 17 74.1333 18.8667 70 21.4L63.3333 25.5333V13.6667C63.3333 2.6 63.2 1.66666 60.6667 1.66666C58.1333 1.66666 58 2.6 58 23.2667ZM93.4667 23.8C99.7333 26.7333 103.6 32.7333 104.4 40.3333C105.067 47.5333 103.067 52.3333 96.8 58.2C91.0667 63.6667 80.6667 64.6 74.1333 60.0667C63.7333 53 60.8 42.7333 66.2667 32.4667C71.6 22.6 83.0667 18.8667 93.4667 23.8Z" fill="white"/>
<path d="M239.333 9.66666V17.6667H233.867C229.467 17.6667 228.533 18.0667 228.933 19.9333C229.2 21.6667 230.8 22.4667 234.4 22.7333L239.333 23.1333V45.1333V67H242.667H246V45V23H250.667C254.4 23 255.333 22.4667 255.333 20.3333C255.333 18.2 254.4 17.6667 250.667 17.6667H246V9.66666C246 2.06667 245.867 1.66666 242.667 1.66666C239.467 1.66666 239.333 2.06667 239.333 9.66666Z" fill="white"/>
<path d="M192.533 17.6667C180.533 21.2667 178 26.8667 178 49.5333C178 66.0667 178.133 67 180.667 67C183.2 67 183.333 66.0667 183.333 50.8667C183.333 39 183.867 33.5333 185.467 30.3333C189.733 21.2667 204 19 211.2 26.2C214.533 29.6667 214.667 30.3333 215.067 48.3333C215.467 65.6667 215.733 67 218.133 67C220.533 67 220.667 65.9333 220.667 48.8667C220.667 34.7333 220.133 29.6667 218.4 26.0667C214.8 18.3333 202.933 14.4667 192.533 17.6667Z" fill="white"/>
<path d="M390.533 19.5333C365.467 31.2666 374.8 68.6 402.667 68.3333C407.733 68.2 416.133 65.2666 419.2 62.4666C422.4 59.5333 423.333 59.8 423.333 63.6666C423.333 66.0666 424 67 426 67C428.533 67 428.667 66.0666 428.667 50.6C428.667 30.3333 426.667 25.6666 415.467 19.9333C406.4 15.4 399.6 15.2666 390.533 19.5333ZM416.133 27.1333C424.667 35.4 425.467 47 418 55.5333C412.8 61.2666 407.467 63.5333 400.133 62.7333C384.8 61 377.333 45.2666 385.333 31.6666C389.6 24.3333 395.333 21.4 404.4 22.0666C410.267 22.4666 412.267 23.2666 416.133 27.1333Z" fill="white"/>
<path d="M479.733 19C470.133 23.2667 468.667 27.2667 468.667 48.6C468.667 66.0667 468.8 67 471.333 67C473.867 67 474 66.0667 474 49.2667C474 29.9333 474.8 27.4 482 23.6667C487.333 21 493.867 21.1333 498.933 24.2C504.133 27.5333 506 35 506 53.8C506 65.8 506.267 67.1333 508.4 66.7333C510.4 66.3333 510.8 64.0667 511.333 48.0667C512 30.4667 512.133 29.5333 515.467 26.2C519.6 22.0667 528.133 20.6 534 23C540.667 25.8 542 30.0667 542 49.6667C542 66.0667 542.133 67 544.667 67C547.2 67 547.333 66.0667 547.333 49.6667C547.333 25.1333 544.4 18.8667 531.733 16.8667C524.933 15.8 516.533 18.2 512.667 22.3333C509.6 25.6667 509.467 25.6667 506.8 23.1333C502.933 19.4 494.933 16.3333 489.733 16.3333C487.333 16.3333 482.8 17.5333 479.733 19Z" fill="white"/>
<path d="M565.2 20.8666C561.867 24.2 560.667 26.6 560.667 29.9333C560.667 36.4666 563.334 39.4 573.067 43.5333C579.6 46.3333 582.134 48.2 583.334 51C585.867 57.1333 581.2 63 573.6 63C570 63 564.667 57.9333 564.667 54.6C564.667 53.1333 563.6 52.3333 561.334 52.3333C557.467 52.3333 557.2 53.6666 560.134 59.6666C564.534 68.8666 578.4 71 586.134 63.5333C589.334 60.4666 590 58.7333 590 53.6666C590 46.0666 587.334 42.8666 578.4 39.5333C570 36.4666 567.334 34.0666 567.334 29.6666C567.334 25.2666 571.067 21.6666 575.6 21.6666C578.934 21.6666 583.334 25.2666 583.334 28.0666C583.334 29.6666 587.6 30.3333 589.067 28.8666C590.667 27.2666 586.8 20.2 583.2 18.3333C576.667 14.8666 570.267 15.8 565.2 20.8666Z" fill="white"/>
<path d="M1.0666 19.8C0.666602 21 0.666602 29.4 1.0666 38.3333C2.13327 62.6 5.73327 67.6666 21.9999 67.6666C32.3999 67.6666 37.7333 64.8666 41.8666 57.6666C44.2666 53.2666 44.6666 50.4666 44.6666 35.1333C44.6666 18.8666 44.5333 17.6666 42.1333 17.6666C39.7333 17.6666 39.5999 19 39.0666 35.6666L38.6666 53.6666L34.5333 57.8C27.0666 65.1333 13.4666 64.3333 9.33327 56.2C7.8666 53.5333 7.33327 47.6666 7.33327 35C7.33327 18.4666 7.19994 17.6666 4.6666 17.6666C3.19993 17.6666 1.59993 18.6 1.0666 19.8Z" fill="white"/>
<path d="M136.274 64.0593C156.407 64.0593 161.874 62.726 165.874 56.5927C169.34 51.2593 169.207 36.9927 165.607 30.8593C160.94 22.9927 156.14 21.3927 136.007 21.3927C119.207 21.3927 118.274 21.526 118.274 24.0593C118.274 26.5927 119.207 26.726 134.407 26.726C152.407 26.726 157.607 28.1927 161.34 34.5927C165.874 42.326 163.207 53.926 156.274 57.126C154.14 58.0593 146.14 58.726 135.607 58.726C119.207 58.726 118.274 58.8593 118.274 61.3927C118.274 63.926 119.207 64.0593 136.274 64.0593Z" fill="white"/>
<path d="M290.708 21.8253C269.242 22.2253 266.175 23.292 261.508 32.3586C256.708 41.292 260.708 56.492 268.975 61.5586C272.708 63.8253 275.775 64.2253 291.642 64.2253C308.975 64.2253 309.908 64.092 309.908 61.5586C309.908 59.0253 308.975 58.892 292.175 58.892C274.708 58.892 274.442 58.892 270.042 55.1586C266.308 52.092 265.508 50.3586 264.975 44.892C263.775 30.6253 269.775 26.892 293.642 26.892C309.242 26.892 309.908 26.7586 309.908 24.092C309.908 21.4253 309.508 21.292 290.708 21.8253Z" fill="white"/>
<path d="M449.867 20.7333C443.6 25 442.133 30.2 442.133 49.9333L442 67H445.333H448.667V48.3333C448.667 30.2 448.8 29.4 452 26.3333C453.733 24.4667 456.4 23 458 23C459.733 23 460.667 22.0667 460.667 20.3333C460.667 16.6 455.6 16.8667 449.867 20.7333Z" fill="white"/>
</svg>
